<svg id="Layer_2" data-name="Layer 2" xmlns="http://www.w3.org/2000/svg" xmlns:xlink="http://www.w3.org/1999/xlink" viewBox="0 0 687.51 182.63">
  <defs>
    <clipPath id="clip-path" transform="translate(-227.5 -297.87)">
      <path d="M818.39,318.53l21.39,13.94,1.41-1-2.49-16.76,1.8-1c1.94,2.66,4.42,5.09,5.69,8a82.48,82.48,0,0,1,4.84,15c1,4.71,3.68,7.6,7.53,10,11,6.92,22.15,13.73,32.9,21.08C899,373,903.85,380.57,907,389.14c3.63,10-.9,18.08-6.23,25.93-14.9,21.93-36.36,34.63-60.51,44.07a156.41,156.41,0,0,1-69.74,10.51c-9.8-.75-19.74-2-29.11-9.73,4.78,0,8.09-.32,11.32.05,18.15,2.13,36-.24,53.51-4.48,16.39-4,32.57-8.95,47.22-17.65,13.21-7.84,25.77-16.48,34.91-29.31,7-9.77,7.93-15.44-2.55-26.57-7.48-8-17.3-13.7-26.76-19.9-1.85,11.18,5.53,19.72,7.44,31.5-3.12-2.24-5.18-3.3-6.71-4.88a49.53,49.53,0,0,1-14-29.17,19.86,19.86,0,0,0-6.69-13c-6.82-6.44-12.26-14.36-18.12-21.78C819.88,323.42,819.57,321.48,818.39,318.53ZM565,373.48c-.3-6.33-.85-12.68-.57-19,.16-3.58,2-8.22,6.1-7.49,3.57.63,6.84,4,9.77,6.73,1.14,1,1.07,3.5,1.35,5.35.46,3,.34,6.12,1.21,9q4,12.92,8.62,25.6c.48,1.29,3,2.83,4.21,2.59s2.79-2.31,3.35-3.88a8.35,8.35,0,0,0-.31-4.85c-2.38-7.72-4.92-15.39-7.39-23.08-1.89-5.9-.43-13.33,3-15.25,3.7-2.08,9.29.08,13,6.47,4.56,7.78,8,16.22,12.2,24.22a83.36,83.36,0,0,0,8.16,12.71c1.08,1.36,3.85,1.39,6.7,2.3-1.12-4.34-1.69-7.1-2.54-9.76-5.3-16.51-12.53-31.85-25.36-44.13-6.07-5.81-17.54-5.3-21,2-1.48,3.14-3.65,3.64-6.18.86-.89-1-2-1.78-2.95-2.68-8.17-7.41-18.46-4.28-21.12,6.46-.72,2.92-2,6-1.73,8.83.42,5.34.93,10.94,3,15.78,1.28,3,5.41,4.85,9.41,8.16C565.54,377.18,565.12,375.34,565,373.48Zm145.54-.57c-2.89-8.57-9.53-14-16-19.4a39.88,39.88,0,0,0-11.83-6.44c-4.69-1.71-11.24,1.17-11.9,4.33-.81,3.85-1.8,7.66-2.67,11.5-1.64,7.26-1.27,14,3.26,20.52,5.36,7.74,14.2,9.6,19.86,14.22C703.86,397.62,714.05,383.24,710.57,372.91Zm-11.25.47c-.39,3.75-7.48,9.5-12,9.71-3.45.16-9.36-5.56-9.59-9.89a34.12,34.12,0,0,1,1.11-8.83c.39-1.81,1.63-3.43,2.08-5.23a30.84,30.84,0,0,0,.38-5.42C689.12,354.34,700,366.64,699.32,373.38Zm84.58,10.53c-1-12.24-7.69-21.45-17.48-27.85-5-3.3-12.36-3.73-17,1-5,5-9.64,7.39-16.37,4.52a5.31,5.31,0,0,0-3.38-.09,32.94,32.94,0,0,0-4.58,2.17c.87,1.63,1.41,3.6,2.68,4.81,2.27,2.17,5.85,3.36,7.34,5.87a133.48,133.48,0,0,1,8.62,18.16c1.32,3.28,2,7,6.5,6.12,5.1-1,3.89-4.9,3.42-8.6a152.33,152.33,0,0,1-1.6-19.19c0-3.85,1.84-7.57,6.46-8.22,4.19-.59,7.57.91,9.15,5.06,3,7.86,5.82,15.79,8.83,24C781.38,391.63,784.32,389.21,783.9,383.91Zm32.52,8.16c-2.3-2.87-4.78-5.8-6.06-9.14-.37-1,2.79-3.83,4.8-5.07,5.84-3.62,10-8.9,8.26-15.38-1.13-4.2-5.58-8.32-9.58-10.76-6.85-4.18-13-2.07-16,4.18-5.53,11.26-2.53,22,3.06,32,4.56,8.08,11,9.61,20,6C818.66,393,817.08,392.9,816.42,392.07ZM807.91,353c.44-.56,3.31-.16,3.35.07.56,3.48.83,7,1.16,10.51,0,.18,0,.45-.09.55-2.06,1.84-4.13,3.67-6.2,5.5l-4.44-7.4C803.93,358.83,805.73,355.77,807.91,353ZM650.76,358.4c-6.13-12.82-16.36-22-31.37-24-3.95-.54-7.22-.1-8.45,5.28a26.32,26.32,0,0,0,3.66,0c11-2,18.31,1.49,22.72,11.7a277.94,277.94,0,0,1,10.55,28c2.62,8.48,5.65,16,17.54,18.62C660.34,384,656.62,370.67,650.76,358.4ZM323.09,388.95c3-2.45,1.88-3.86-.4-5.78-3.9-3.3-7.82-6.63-11.39-10.28-6.8-6.93-6.9-8.75-2.31-17a40.7,40.7,0,0,0,3.37-7.18c3.07-9.6-2-28.09-2-28.09s-5.6-4.58-9.83-2.66c-6.72,3-8.78,8.9-10,15.37-2,10.23-.42,20.11,3.23,29.72,1.6,4.21.43,7.4-2.28,10.91-9.41,12.22-30.55,11.15-40.18-1.89a22.31,22.31,0,0,1,10.58-34.59c5.53-1.89,3.36-5.94,3.09-9.3,0-.47-4.24-1.49-5.89-.79-11.94,5.1-19.38,13.46-20.69,27.17-1.34,14-1.73,27.25,10.44,37.4,7.15,6,19.08,8.77,24.75,4.45,6.09-4.63,11.5-10.18,17.13-15.41,2.14-2,4-4.21,6.11-6.38,14.45,17.69,17.61,20.12,24.76,19.58C322.06,392.3,322,389.88,323.09,388.95ZM300,329.37c.27-1.27,2.21-2.53,3.65-3.05.75-.27,2.49.81,3.09,1.73,3.63,5.58,2.08,22.12-3.06,28.23A38.84,38.84,0,0,1,300,329.37ZM357.22,366a45.15,45.15,0,0,1-7-1.15c-9-2.93-12.91-3.59-17.55,2-6.36,7.67-4.11,25.41,4.12,30.89,1.76,1.17,5.43,1.35,7.17.27,3.27-2,5.76-5.3,8.59-8,1.14-1.1,2.3-2.18,3.45-3.27a34.29,34.29,0,0,1,3,3.82c2.59,4.47,5.9,8,11.51,7.35,5.23-.57,6.23-4.95,8-9.7-16.65.31-16-13.46-20.09-23.34ZM344,373.89c1.49.23,4,2.95,3.71,3.91-.74,2.72-2.67,5.12-4.13,7.64l-5.1-5.19C339.06,375.73,340.4,373.33,344,373.89Zm63,9.7c-.35,2.15-1.82,5.28-3.42,5.75s-4.68-1.4-5.87-3.11c-3.45-4.93-6.06-10.44-9.47-15.41-1.29-1.88-3.85-2.89-5.83-4.29-1.33,2.27-3.61,4.46-3.82,6.83-.86,9.86,10.09,22,21.85,24.81,8.28,2,12,.24,15-7.52,1.58-4.15,3.54-4.69,7.08-2,3.11,2.35,6.6,4.18,10.83,6.8-2.16-10.91-16.54-26.91-24.75-28.52C408.05,372.74,407.86,378.22,407,383.59Zm11.68-40.27c7.64,2.22,15.17,4.91,22.93,6.56,12.22,2.6,19.22,14,14.43,24.51-3.37,7.38-9.69,8.4-15.19,2.54-2.5-2.66-5.22-5.13-8.31-8.14-1,9.67,8.84,22,17.19,22.14a13.35,13.35,0,0,0,8.27-2.66c10.72-9.2,7.71-24.85,2.55-32.07-10.37-14.5-25.26-16.23-41.16-15.3Zm67.57,11.31c4.59,1.89,9.27,3.6,13.73,5.77,1.54.75,3.82,3.3,3.52,3.93-1.47,3-3.72,5.64-5.69,8.41a53.64,53.64,0,0,1-4-5.39c-.72-1.25-.55-3-1.27-4.26a42.14,42.14,0,0,0-3.7-4.85c-1.73,1.6-4.63,3-4.92,4.83a21,21,0,0,0,1,10.52c1.63,4.15,1.55,6.69-2.3,7.31,6.55,2.88,13.45,6.06,20.46,9,5.14,2.13,10.3,2.2,15.27-.85a12.26,12.26,0,0,0-3.53-1.36c-3.5-1.27-7.25-2.18-10.38-4.1-4.27-2.61-4.07-5.27-.17-8.28a64,64,0,0,0,5.68-4.66c3.82-3.73,3-10.9-2-12.61-6.86-2.38-14.07-3.76-21.13-5.57Z" fill="none"/>
    </clipPath>
  </defs>
  <title>Monet_autograph</title>
  <g clip-path="url(#clip-path)">
    <path d="M264.94,328.15S253,333.72,248.5,340.68s-7,14.47-7,20.32,1.23,14.92,5,20.45a23.06,23.06,0,0,0,20.44,10.05c12-.73,28.6-17.38,32.1-22.5s12.37-20.72,12.46-29.5-3.61-17.3-6.14-17.91A6,6,0,0,0,299,323.5c-4.2,4.81-5,10.23-5,21.5s6.73,26.85,12,32.63,23,13.77,23,13.77,10.46,4.56,15,2.58,13.48-10,13.57-14.35-1.56-8.16-7-10.63-10.3-1.32-13,.53-4.72,6.32-4.49,11.11,1,10.24,6.49,13.28S356.2,383.88,358,382.45s3.4,7.88,12,10,12.13-3.41,12.46-7c0,0-.14-12,1.13-12.08s5.7,13,11.41,17.57c4.4,3.55,9.11,4.37,12.92,3.57,4-1.52,6.23-7.27,6.08-11.77s-3.2-10.3-2-10.82S425.09,389,428.65,390.4s2.91-16.48,4.35-17.07c2.44.5,8.91,12.06,14,13.12s10.78-.64,14.5-6.82.47-16.39-1-19c-2.35-5.36-14.28-14.62-18.89-15.72s-22.23-4-22.23-4S484.9,376.74,491,377s14.38-4.28,17-9.47c1-5.06-.67-6.53-3.06-8.53a10.42,10.42,0,0,0-11.34-1.4c-4.63,2.25-4.27,7.39-4.59,10.93s1.31,11.14,8,14.91,11.54,5.61,15,6.05" transform="translate(-227.5 -297.87)" fill="none" stroke="#000" stroke-miterlimit="10" stroke-width="28"/>
    <path d="M560.23,376.13s-6.09-24.23,0-31.63c4.65-3.37,11.36-3.6,14.27-1.82s8.25,6.3,10.5,10.75,6.52,34.94,9,35.07-8.24-24.43-8.51-30.42,2.89-15.21,8.51-17.39,8.49.07,11.49,4c4.13,3.44,22.5,47.1,24,46.25s-19.5-35.84-20.06-43.38S613.92,336.16,620,336s14.7,5.3,18.44,9.58S649,366.7,651,371.91s5,17.7,8.5,21,13.25,5.43,17,5.06S701,386.5,704,382s-1.22-16.14-4.24-20.13S687.25,350.22,682,349.55s-8.54,4.56-9,10,.25,17.58,3.5,22.46c4.13,5.38,19.13,11.82,24.32,9.78s26.56-25,30.18-26,8.37-1.17,10.37,1.7,9.5,23.41,7.63,23.89-6.25-19.82-4.5-24.48,10.88-8.64,16.5-8.84,10.88,4.84,13.5,9.43,4.38,18.87,6.5,20.22,26.87-10.23,31.34-14.11a12.9,12.9,0,0,0,5.66-9.54c.42-4,.33-8.27-4.17-11.36s-10-.48-13.63,5.71c-3.37,7.9-1.71,13.82-.71,17.48s9.17,18.17,13.84,20.09c1,.75,47,1.68,45.66-1.22s-1.56-5.05-2-15.28-6.5-30-6.5-30-5.9-27.74-9.7-33-18.13-5.93-19.8-2.92,3.5,11.52,8.5,16.85,48.76,38.14,54.5,41.41S898,381,900.5,392s-4.83,21.5-9.5,28c-12.9,15.1-23.83,21-33.5,26s-34,12.5-45.5,15-29,5.5-41.5,5.5-29.13-6.58-29.13-6.58" transform="translate(-227.5 -297.87)" fill="none" stroke="#000" stroke-miterlimit="10" stroke-width="28"/>
  </g>
</svg>
