<svg xmlns="http://www.w3.org/2000/svg" width="55" height="47" viewBox="0 0 55 47">
  <g fill="#131313" transform="translate(-1 -1)">
    <path d="M20.4478781,20.335358 C24.555534,20.335358 27.896547,15.9992916 27.896547,10.6681252 C27.896547,5.33734116 24.5554022,1 20.4478781,1 C16.3414085,1 13,5.33721368 13,10.6681252 C13,15.9992916 16.3414085,20.335358 20.4478781,20.335358 Z" transform="rotate(-7 20.448 10.668)"/>
    <path d="M44.2340921,31.737954 C44.0710614,31.515844 43.9147826,31.3063939 43.8312276,31.1263427 C42.0539258,27.3219182 37.1819949,22.8368159 29.2890026,22.7252685 L28.9853069,22.7235806 C21.2135678,22.7235806 16.3779284,26.9712404 14.4432225,30.9481202 C14.3764066,31.0841432 14.2294118,31.2606777 14.0736957,31.4473402 C13.8894246,31.6660742 13.7071228,31.8898721 13.551266,32.1330818 C11.9168798,34.675601 11.0835806,37.5382737 11.2065217,40.1930435 C11.3353708,43.0115473 12.5154092,45.2754092 14.5235422,46.5668542 C15.3348977,47.0880179 16.2103964,47.3506394 17.1289386,47.3506394 C19.0229923,47.3506394 20.75711,46.2838363 22.7666496,45.0482353 C24.0443095,44.2607928 25.3640281,43.448312 26.8298977,42.8402174 C26.9941944,42.7860614 27.6674169,42.7033504 28.7684015,42.7033504 C30.0775703,42.7033504 31.0177749,42.819821 31.2186445,42.8891688 C32.6496292,43.5208951 33.9063299,44.3495524 35.1218159,45.1493734 C36.9852046,46.3775192 38.7446419,47.5364578 40.6536061,47.5364578 C41.4728389,47.5364578 42.2668926,47.3202558 43.0160742,46.8946036 C47.1490921,44.5464834 47.9363939,38.1041688 44.7721355,32.534399 C44.6133248,32.2548977 44.4241304,31.9939642 44.2340921,31.737954 Z"/>
    <path d="M37.4490644,20.335358 C41.5547431,20.335358 44.896547,15.9992916 44.896547,10.6681252 C44.896547,5.33734116 41.5547431,1 37.4490644,1 C33.341013,1 30,5.33721368 30,10.6681252 C30,15.9992916 33.341013,20.335358 37.4490644,20.335358 Z" transform="rotate(7 37.448 10.668)"/>
    <path d="M50.1131635,15.8836061 C46.8805102,15.8836061 44.3505627,19.087679 44.3505627,23.1780954 C44.3505627,27.2666561 46.8820635,30.4711001 50.1131635,30.4711001 C53.3440046,30.4711001 55.8770587,27.2666561 55.8770587,23.1780954 C55.8770587,19.0878027 53.3455579,15.8836061 50.1131635,15.8836061 Z" transform="rotate(10 50.114 23.177)"/>
    <path d="M13.525934,23.1780954 C13.525934,19.0878027 10.9944429,15.8836061 7.76322587,15.8836061 C4.53187938,15.8836061 2,19.0878027 2,23.1780954 C2,27.2666561 4.53187938,30.4711001 7.76322587,30.4711001 C10.9945724,30.4711001 13.525934,27.2666561 13.525934,23.1780954 Z" transform="rotate(-10 7.763 23.177)"/>
  </g>
</svg>
